<?xml version="1.0" encoding="UTF-8" standalone="no"?>
<!DOCTYPE svg PUBLIC "-//W3C//DTD SVG 1.1//EN" "http://www.w3.org/Graphics/SVG/1.1/DTD/svg11.dtd">
<svg viewBox="0 0 419 512" xmlns="http://www.w3.org/2000/svg" style="fill-rule:evenodd;clip-rule:evenodd;stroke-linejoin:round;stroke-miterlimit:2">
  <path d="M212.242 144.134c41.753 0 31.021-23.06 95.414-23.06 58.446 0 90.496 41.23 97.272 50.449-96.24 71.71-43.39 180.546 14.044 202.236C401.548 429.538 350.584 512 307.656 512c-38.174 0-61.894-22.057-87.205-22.057S167.864 512 128.786 512 0 404.678 0 275.589c0-103.441 71.548-153.231 121.631-153.231 64.393 0 57.239 21.776 90.611 21.776zm-2.853-25.799C205.029 37.67 271.175-.159 312.085 0c4.174 35.82-20.864 112.228-102.696 118.335z" style="fill:rgb(85,85,85)"/>
</svg>
